<svg xmlns="http://www.w3.org/2000/svg" viewBox="0 0 43.08 37.27"><defs><style>.cls-1{fill:#d28eaa;}.cls-1,.cls-2{fill-rule:evenodd;}.cls-2{fill:#71b0a7;}</style></defs><title>HOME CORAZON</title><g id="Capa_2" data-name="Capa 2"><g id="Capa_1-2" data-name="Capa 1"><path class="cls-1" d="M22.69,13.23C18.14,4.09,8.09-7.92,1.48,7.17s11.11,30.1,11.11,30.1S42.93,25.52,43.08,13.8,29.22,4,22.69,13.23M17,29.25s-8.12-6.88-5.09-13.8S19.5,14,21.59,18.22c3-4.23,9.42-5.11,9.35.27S17,29.25,17,29.25"/><path class="cls-2" d="M21.22,19.48c2.13-3,6.7-3.64,6.65.19s-10,7.66-10,7.66-5.78-4.89-3.62-9.82,5.44-1,6.93,2"/></g></g></svg>